<svg width="311" height="85" viewBox="0 0 311 85" fill="none" xmlns="http://www.w3.org/2000/svg">
<path d="M104.976 68.32C100.325 68.32 96.656 67.7227 93.968 66.528C91.28 65.2907 89.36 63.4347 88.208 60.96C87.056 58.4853 86.48 55.3707 86.48 51.616V22.24H96.72V51.616C96.72 54.8587 97.4667 57.0773 98.96 58.272C100.496 59.424 103.077 60 106.704 60H119.056C122.683 60 125.243 59.424 126.736 58.272C128.272 57.0773 129.04 54.8587 129.04 51.616V22.24H139.28V51.616C139.28 55.3707 138.704 58.4853 137.552 60.96C136.4 63.4347 134.48 65.2907 131.792 66.528C129.104 67.7227 125.435 68.32 120.784 68.32H104.976ZM148.23 68V22.24H158.47V59.68H191.942V68H148.23ZM198.355 68V22.24H248.531V30.56H208.595V40.672H244.819V48.992H208.595V59.68H248.531V68H198.355ZM251.703 68L268.855 45.152L251.703 22.24H264.183L277.943 40.992H283.831L297.591 22.24H310.071L292.919 45.152L310.071 68H297.527L283.831 49.312H277.943L264.247 68H251.703Z" fill="white"/>
<path fill-rule="evenodd" clip-rule="evenodd" d="M12.9272 28.3746C14.6481 28.9099 16.9114 29.9785 20.2708 31.5753L21.0937 31.9663V45.0338L20.2708 45.4249C16.9114 47.0217 14.6481 48.09 12.9272 48.6255C11.242 49.1498 10.7317 48.9486 10.4817 48.8016C10.2316 48.6547 9.81441 48.3108 9.55386 46.6434C9.28791 44.9411 9.28117 42.5387 9.28117 38.9681V38.0319C9.28117 34.4614 9.28791 32.0591 9.55386 30.3566C9.81441 28.6892 10.2316 28.3452 10.4817 28.1982C10.7317 28.0513 11.242 27.8504 12.9272 28.3746ZM14.5016 23.8007C12.3031 23.1169 9.97102 22.8408 7.82013 24.1045C5.66924 25.3681 4.8859 27.4745 4.54638 29.6497C4.21833 31.7483 4.21867 34.5127 4.21867 37.834V39.1661C4.21867 42.4873 4.21833 45.2516 4.54638 47.3502C4.8859 49.5254 5.66924 51.6317 7.82013 52.8955C9.97102 54.1592 12.3031 53.8833 14.5016 53.1993C16.6228 52.5394 19.2239 51.3032 22.3488 49.8177L26.1562 48.0079V28.992L22.5351 27.2708C22.4727 27.2412 22.4106 27.2117 22.3488 27.1823C19.2239 25.6969 16.6228 24.4605 14.5016 23.8007ZM37.0227 25.5694C38.0112 24.6297 39.6136 24.6297 40.6022 25.5694C41.5907 26.5091 41.5907 28.0326 40.6022 28.9723C39.6136 29.912 38.0112 29.912 37.0227 28.9723C36.0341 28.0326 36.0341 26.5091 37.0227 25.5694ZM44.182 22.1664C41.2164 19.3473 36.4084 19.3473 33.4428 22.1664C30.4772 24.9855 30.4772 29.5562 33.4428 32.3753C36.4084 35.1945 41.2164 35.1945 44.182 32.3753C47.1477 29.5562 47.1477 24.9855 44.182 22.1664Z" fill="white"/>
<path fill-rule="evenodd" clip-rule="evenodd" d="M49.1026 10.4271H48.7724C43.3647 10.4271 39.0808 10.427 35.6913 10.8079C32.212 11.1988 29.3477 12.0196 26.9548 13.8863C26.1431 14.5196 25.3989 15.2271 24.7327 15.9988C22.7691 18.2733 21.9054 20.9962 21.4944 24.3039C21.0938 27.5258 21.0938 31.5983 21.0938 36.739V40.2611C21.0938 45.4018 21.0938 49.4741 21.4944 52.6962C21.9054 56.0037 22.7691 58.7266 24.7327 61.0013C25.3989 61.7729 26.1431 62.4804 26.9548 63.1137C29.3477 64.9803 32.212 65.8013 35.6913 66.1921C39.0808 66.5729 43.3647 66.5729 48.7723 66.5729H49.1027C54.5103 66.5729 58.7943 66.5729 62.1835 66.1921C65.6631 65.8013 68.5274 64.9803 70.9201 63.1137C71.7318 62.4804 72.4762 61.7729 73.1423 61.0013C75.106 58.7266 75.9694 56.0037 76.3807 52.6962C76.7813 49.4741 76.7813 45.4018 76.7812 40.2611V36.8958C76.7812 35.567 75.648 34.4896 74.25 34.4896C72.852 34.4896 71.7187 35.567 71.7187 36.8958V40.1042C71.7187 45.4367 71.7146 49.2248 71.3532 52.1313C70.9984 54.9844 70.3297 56.6733 69.2289 57.9483C68.7732 58.4761 68.2639 58.9602 67.7085 59.3936C66.3672 60.4399 64.5909 61.0758 61.5893 61.413C58.5318 61.7566 54.5471 61.7604 48.9375 61.7604C43.3279 61.7604 39.343 61.7566 36.2856 61.413C33.2842 61.0758 31.5076 60.4399 30.1664 59.3936C29.6112 58.9602 29.102 58.4761 28.646 57.9483C27.5454 56.6733 26.8765 54.9844 26.5218 52.1313C26.1603 49.2248 26.1562 45.4367 26.1562 40.1042V36.8958C26.1562 31.5632 26.1603 27.7753 26.5218 24.8689C26.8765 22.0155 27.5454 20.3268 28.646 19.0518C29.102 18.5238 29.6112 18.0397 30.1664 17.6064C31.5076 16.5601 33.2842 15.9244 36.2856 15.5871C39.343 15.2435 43.3279 15.2396 48.9375 15.2396C54.5471 15.2396 58.5318 15.2435 61.5893 15.5871C64.5909 15.9244 66.3672 16.5601 67.7085 17.6064C68.2639 18.0397 68.7732 18.5238 69.2289 19.0518C70.2669 20.254 70.9203 21.8239 71.2889 24.3883C71.4781 25.705 72.7544 26.6265 74.1395 26.4466C75.5246 26.2667 76.494 25.0535 76.3048 23.7368C75.8658 20.6823 74.9922 18.1416 73.1423 15.9988C72.4762 15.2271 71.7318 14.5196 70.9201 13.8863C68.5274 12.0196 65.6631 11.1988 62.1835 10.8079C58.7943 10.427 54.5102 10.4271 49.1026 10.4271Z" fill="white"/>
</svg>
