<svg width="211" height="57" viewBox="0 0 211 57" fill="none" xmlns="http://www.w3.org/2000/svg">
<path d="M71.2216 45.8146C68.0661 45.8146 65.5769 45.414 63.7532 44.6129C61.9295 43.7832 60.6269 42.5386 59.8453 40.8791C59.0637 39.2196 58.6729 37.1309 58.6729 34.6131V14.9139H65.6203V34.6131C65.6203 36.7876 66.1269 38.2754 67.14 39.0765C68.1822 39.849 69.9333 40.2353 72.394 40.2353H80.7743C83.2351 40.2353 84.9719 39.849 85.9849 39.0765C87.027 38.2754 87.548 36.7876 87.548 34.6131V14.9139H94.4954V34.6131C94.4954 37.1309 94.1046 39.2196 93.323 40.8791C92.5415 42.5386 91.2388 43.7832 89.4151 44.6129C87.5914 45.414 85.1022 45.8146 81.9467 45.8146H71.2216ZM100.568 45.6V14.9139H107.515V40.0207H130.224V45.6H100.568ZM134.575 45.6V14.9139H168.617V20.4932H141.523V27.2742H166.099V32.8535H141.523V40.0207H168.617V45.6H134.575ZM170.77 45.6L182.406 30.2784L170.77 14.9139H179.237L188.572 27.4887H192.567L201.903 14.9139H210.37L198.733 30.2784L210.37 45.6H201.859L192.567 33.068H188.572L179.28 45.6H170.77Z" fill="black"/>
<path fill-rule="evenodd" clip-rule="evenodd" d="M8.77054 19.0277C9.9381 19.3866 11.4736 20.1032 13.7529 21.174L14.3112 21.4362V30.1991L13.7529 30.4614C11.4736 31.5322 9.9381 32.2486 8.77054 32.6077C7.62721 32.9593 7.28099 32.8244 7.11138 32.7258C6.94169 32.6273 6.65865 32.3967 6.48188 31.2785C6.30144 30.137 6.29687 28.526 6.29687 26.1315V25.5037C6.29687 23.1094 6.30144 21.4985 6.48188 20.3568C6.65865 19.2386 6.94169 19.008 7.11138 18.9094C7.28099 18.8109 7.62721 18.6761 8.77054 19.0277ZM9.8387 15.9605C8.34712 15.5019 6.7649 15.3168 5.30562 16.1642C3.84633 17.0115 3.31487 18.4241 3.08452 19.8827C2.86195 21.29 2.86218 23.1438 2.86218 25.371V26.2643C2.86218 28.4915 2.86195 30.3452 3.08452 31.7525C3.31487 33.2111 3.84633 34.6236 5.30562 35.4711C6.7649 36.3185 8.34712 36.1335 9.8387 35.6748C11.2778 35.2323 13.0426 34.4033 15.1627 33.4072L17.7458 32.1935V19.4417L15.2891 18.2875C15.2468 18.2676 15.2046 18.2478 15.1627 18.2281C13.0426 17.232 11.2778 16.4029 9.8387 15.9605ZM25.1183 17.1465C25.7889 16.5164 26.8761 16.5164 27.5468 17.1465C28.2175 17.7767 28.2175 18.7983 27.5468 19.4285C26.8761 20.0586 25.7889 20.0586 25.1183 19.4285C24.4476 18.7983 24.4476 17.7767 25.1183 17.1465ZM29.9756 14.8645C27.9635 12.9741 24.7015 12.9741 22.6895 14.8645C20.6775 16.755 20.6775 19.82 22.6895 21.7105C24.7015 23.601 27.9635 23.601 29.9756 21.7105C31.9877 19.82 31.9877 16.755 29.9756 14.8645Z" fill="black"/>
<path fill-rule="evenodd" clip-rule="evenodd" d="M33.314 6.99228H33.0899C29.4211 6.99228 26.5146 6.99221 24.215 7.24764C21.8544 7.50977 19.9111 8.06019 18.2877 9.31198C17.7369 9.73666 17.232 10.2111 16.7801 10.7286C15.4478 12.2538 14.8619 14.0798 14.583 16.2979C14.3112 18.4585 14.3112 21.1894 14.3112 24.6367V26.9986C14.3112 30.4459 14.3112 33.1767 14.583 35.3374C14.8619 37.5554 15.4478 39.3814 16.7801 40.9067C17.232 41.4242 17.7369 41.8986 18.2877 42.3233C19.9111 43.575 21.8544 44.1256 24.215 44.3876C26.5146 44.643 29.4211 44.643 33.0899 44.643H33.314C36.9829 44.643 39.8894 44.643 42.1888 44.3876C44.5496 44.1256 46.4929 43.575 48.1162 42.3233C48.6669 41.8986 49.172 41.4242 49.6239 40.9067C50.9562 39.3814 51.5419 37.5554 51.821 35.3374C52.0928 33.1767 52.0928 30.4459 52.0927 26.9986V24.7419C52.0927 23.8508 51.3239 23.1283 50.3754 23.1283C49.4269 23.1283 48.658 23.8508 48.658 24.7419V26.8934C48.658 30.4693 48.6552 33.0096 48.41 34.9586C48.1693 36.8719 47.7156 38.0044 46.9688 38.8594C46.6596 39.2134 46.3141 39.538 45.9373 39.8286C45.0273 40.5303 43.8221 40.9567 41.7857 41.1828C39.7113 41.4132 37.0078 41.4158 33.202 41.4158C29.3961 41.4158 26.6925 41.4132 24.6182 41.1828C22.5819 40.9567 21.3765 40.5303 20.4666 39.8286C20.0899 39.538 19.7444 39.2134 19.4351 38.8594C18.6883 38.0044 18.2345 36.8719 17.9939 34.9586C17.7486 33.0096 17.7458 30.4693 17.7458 26.8934V24.7419C17.7458 21.1659 17.7486 18.6258 17.9939 16.6768C18.2345 14.7633 18.6883 13.6309 19.4351 12.7759C19.7444 12.4218 20.0899 12.0972 20.4666 11.8066C21.3765 11.105 22.5819 10.6787 24.6182 10.4525C26.6925 10.2221 29.3961 10.2195 33.202 10.2195C37.0078 10.2195 39.7113 10.2221 41.7857 10.4525C43.8221 10.6787 45.0273 11.105 45.9373 11.8066C46.3141 12.0972 46.6596 12.4218 46.9688 12.7759C47.673 13.5821 48.1163 14.6348 48.3664 16.3545C48.4948 17.2375 49.3607 17.8554 50.3004 17.7348C51.2402 17.6141 51.8979 16.8006 51.7695 15.9176C51.4716 13.8693 50.8789 12.1655 49.6239 10.7286C49.172 10.2111 48.6669 9.73666 48.1162 9.31198C46.4929 8.06019 44.5496 7.50977 42.1888 7.24764C39.8894 6.99221 36.9828 6.99228 33.314 6.99228Z" fill="black"/>
</svg>
