<svg width="408" height="110" viewBox="0 0 408 110" fill="none" xmlns="http://www.w3.org/2000/svg">
<path d="M137.445 88.4141C131.356 88.4141 126.552 87.6412 123.033 86.0951C119.513 84.4939 116.999 82.092 115.491 78.8894C113.983 75.6869 113.228 71.6562 113.228 66.7972V28.7812H126.636V66.7972C126.636 70.9936 127.613 73.8647 129.569 75.4108C131.58 76.9017 134.959 77.6471 139.708 77.6471H155.88C160.629 77.6471 163.981 76.9017 165.936 75.4108C167.947 73.8647 168.952 70.9936 168.952 66.7972V28.7812H182.36V66.7972C182.36 71.6562 181.605 75.6869 180.097 78.8894C178.589 82.092 176.075 84.4939 172.556 86.0951C169.036 87.6412 164.232 88.4141 158.143 88.4141H137.445ZM194.078 88V28.7812H207.485V77.233H251.31V88H194.078ZM259.707 88V28.7812H325.402V39.5482H273.114V52.6344H320.542V63.4014H273.114V77.233H325.402V88H259.707ZM329.555 88L352.012 58.432L329.555 28.7812H345.895L363.911 53.0485H371.621L389.637 28.7812H405.977L383.519 58.432L405.977 88H389.553L371.621 63.8155H363.911L345.979 88H329.555Z" fill="black"/>
<path fill-rule="evenodd" clip-rule="evenodd" d="M16.9256 36.7201C19.1788 37.4128 22.1421 38.7957 26.5406 40.8621L27.618 41.3681V58.279L26.5406 58.7852C22.1421 60.8516 19.1788 62.2341 16.9256 62.9271C14.7192 63.6056 14.051 63.3452 13.7237 63.155C13.3962 62.9649 12.85 62.5198 12.5089 60.362C12.1607 58.1591 12.1518 55.0501 12.1518 50.4293V49.2177C12.1518 44.5971 12.1607 41.4882 12.5089 39.285C12.85 37.1272 13.3962 36.682 13.7237 36.4918C14.051 36.3017 14.7192 36.0417 16.9256 36.7201ZM18.987 30.8009C16.1085 29.916 13.0551 29.5587 10.2389 31.1941C7.42273 32.8293 6.3971 35.5552 5.95257 38.3702C5.52305 41.086 5.5235 44.6635 5.5235 48.9616V50.6855C5.5235 54.9836 5.52305 58.5609 5.95257 61.2767C6.3971 64.0917 7.42273 66.8175 10.2389 68.453C13.0551 70.0884 16.1085 69.7313 18.987 68.8461C21.7643 67.9922 25.1699 66.3924 29.2613 64.47L34.2464 62.1279V37.5191L29.5052 35.2916C29.4235 35.2533 29.3422 35.2151 29.2613 35.1771C25.1699 33.2548 21.7643 31.6548 18.987 30.8009ZM48.4739 33.0898C49.7681 31.8737 51.8662 31.8737 53.1605 33.0898C54.4548 34.3059 54.4548 36.2775 53.1605 37.4936C51.8662 38.7096 49.7681 38.7096 48.4739 37.4936C47.1795 36.2775 47.1795 34.3059 48.4739 33.0898ZM57.8476 28.6859C53.9647 25.0377 47.6696 25.0377 43.7867 28.6859C39.9038 32.3342 39.9038 38.2492 43.7867 41.8974C47.6696 45.5458 53.9647 45.5458 57.8476 41.8974C61.7306 38.2492 61.7306 32.3342 57.8476 28.6859Z" fill="black"/>
<path fill-rule="evenodd" clip-rule="evenodd" d="M64.2902 13.4939H63.8578C56.7775 13.4939 51.1686 13.4938 46.7307 13.9867C42.1752 14.4926 38.425 15.5548 35.292 17.9705C34.2292 18.7901 33.2548 19.7057 32.3826 20.7043C29.8116 23.6478 28.6808 27.1716 28.1427 31.4521C27.6182 35.6216 27.6182 40.8919 27.6182 47.5446V52.1026C27.6182 58.7553 27.6182 64.0253 28.1427 68.1951C28.6808 72.4754 29.8116 75.9991 32.3826 78.9429C33.2548 79.9414 34.2292 80.857 35.292 81.6766C38.425 84.0922 42.1752 85.1546 46.7307 85.6604C51.1686 86.1532 56.7775 86.1532 63.8577 86.1532H64.2903C71.3705 86.1532 76.9795 86.1532 81.417 85.6604C85.9729 85.1546 89.7231 84.0922 92.8559 81.6766C93.9186 80.857 94.8933 79.9414 95.7654 78.9429C98.3365 75.9991 99.4669 72.4754 100.005 68.1951C100.53 64.0253 100.53 58.7553 100.53 52.1026V47.7475C100.53 46.0279 99.0461 44.6336 97.2157 44.6336C95.3853 44.6336 93.9015 46.0279 93.9015 47.7475V51.8996C93.9015 58.8004 93.8961 63.7027 93.4229 67.464C92.9584 71.1563 92.0828 73.3419 90.6416 74.9919C90.0449 75.6749 89.3781 76.3014 88.6509 76.8623C86.8947 78.2163 84.569 79.0393 80.639 79.4756C76.6358 79.9203 71.4186 79.9252 64.074 79.9252C56.7293 79.9252 51.5119 79.9203 47.5088 79.4756C43.5791 79.0393 41.253 78.2163 39.4969 76.8623C38.77 76.3014 38.1033 75.6749 37.5063 74.9919C36.0653 73.3419 35.1895 71.1563 34.7251 67.464C34.2517 63.7027 34.2464 58.8004 34.2464 51.8996V47.7475C34.2464 40.8465 34.2517 35.9445 34.7251 32.1833C35.1895 28.4906 36.0653 26.3053 37.5063 24.6553C38.1033 23.972 38.77 23.3455 39.4969 22.7848C41.253 21.4307 43.5791 20.608 47.5088 20.1715C51.5119 19.7269 56.7293 19.7218 64.074 19.7218C71.4186 19.7218 76.6358 19.7269 80.639 20.1715C84.569 20.608 86.8947 21.4307 88.6509 22.7848C89.3781 23.3455 90.0449 23.972 90.6416 24.6553C92.0006 26.2111 92.8561 28.2427 93.3387 31.5613C93.5864 33.2653 95.2575 34.4578 97.071 34.225C98.8845 33.9922 100.154 32.4222 99.9061 30.7182C99.3313 26.7653 98.1875 23.4774 95.7654 20.7043C94.8933 19.7057 93.9186 18.7901 92.8559 17.9705C89.7231 15.5548 85.9729 14.4926 81.417 13.9867C76.9795 13.4938 71.3703 13.4939 64.2902 13.4939Z" fill="black"/>
</svg>
