<svg width="31" height="21" viewBox="0 0 31 21" fill="none" xmlns="http://www.w3.org/2000/svg">
<path d="M27.7781 0H3.43227C1.75849 0 0.404254 1.35 0.404254 3L0.389038 18C0.389038 19.65 1.75849 21 3.43227 21H27.7781C29.4519 21 30.8213 19.65 30.8213 18V3C30.8213 1.35 29.4519 0 27.7781 0ZM14.0836 6C14.0836 5.17157 14.7551 4.5 15.5836 4.5H15.6268C16.4552 4.5 17.1268 5.17157 17.1268 6C17.1268 6.82843 16.4552 7.5 15.6268 7.5H15.5836C14.7551 7.5 14.0836 6.82843 14.0836 6ZM14.0836 10.5C14.0836 9.67157 14.7551 9 15.5836 9H15.6268C16.4552 9 17.1268 9.67157 17.1268 10.5C17.1268 11.3284 16.4552 12 15.6268 12H15.5836C14.7551 12 14.0836 11.3284 14.0836 10.5ZM9.51872 6C9.51872 5.17157 10.1903 4.5 11.0187 4.5H11.0619C11.8904 4.5 12.5619 5.17157 12.5619 6C12.5619 6.82843 11.8904 7.5 11.0619 7.5H11.0187C10.1903 7.5 9.51872 6.82843 9.51872 6ZM9.51872 10.5C9.51872 9.67157 10.1903 9 11.0187 9H11.0619C11.8904 9 12.5619 9.67157 12.5619 10.5C12.5619 11.3284 11.8904 12 11.0619 12H11.0187C10.1903 12 9.51872 11.3284 9.51872 10.5ZM7.99711 10.5C7.99711 11.3284 7.32553 12 6.49711 12H6.45388C5.62545 12 4.95388 11.3284 4.95388 10.5C4.95388 9.67157 5.62545 9 6.45388 9H6.49711C7.32553 9 7.99711 9.67157 7.99711 10.5ZM7.99711 6C7.99711 6.82843 7.32553 7.5 6.49711 7.5H6.45388C5.62545 7.5 4.95388 6.82843 4.95388 6C4.95388 5.17157 5.62545 4.5 6.45388 4.5H6.49711C7.32553 4.5 7.99711 5.17157 7.99711 6ZM20.17 18H11.0403C10.2034 18 9.51872 17.325 9.51872 16.5C9.51872 15.675 10.2034 15 11.0403 15H20.17C21.0069 15 21.6916 15.675 21.6916 16.5C21.6916 17.325 21.0069 18 20.17 18ZM21.6916 10.5C21.6916 11.3284 21.0201 12 20.1916 12H20.1484C19.32 12 18.6484 11.3284 18.6484 10.5C18.6484 9.67157 19.32 9 20.1484 9H20.1916C21.0201 9 21.6916 9.67157 21.6916 10.5ZM21.6916 6C21.6916 6.82843 21.0201 7.5 20.1916 7.5H20.1484C19.32 7.5 18.6484 6.82843 18.6484 6C18.6484 5.17157 19.32 4.5 20.1484 4.5H20.1916C21.0201 4.5 21.6916 5.17157 21.6916 6ZM26.2565 10.5C26.2565 11.3284 25.5849 12 24.7565 12H24.7132C23.8848 12 23.2132 11.3284 23.2132 10.5C23.2132 9.67157 23.8848 9 24.7132 9H24.7565C25.5849 9 26.2565 9.67157 26.2565 10.5ZM26.2565 6C26.2565 6.82843 25.5849 7.5 24.7565 7.5H24.7132C23.8848 7.5 23.2132 6.82843 23.2132 6C23.2132 5.17157 23.8848 4.5 24.7132 4.5H24.7565C25.5849 4.5 26.2565 5.17157 26.2565 6Z" fill="#515151"/>
</svg>
