<svg width="25" height="28" viewBox="0 0 25 28" fill="none" xmlns="http://www.w3.org/2000/svg">
<g clip-path="url(#clip0_1_1217)">
<path fill-rule="evenodd" clip-rule="evenodd" d="M21.1173 22.3351C20.9956 22.3337 20.8748 22.3563 20.7618 22.4016C20.6489 22.4469 20.546 22.5141 20.459 22.5992C18.209 24.803 15.1866 26.037 12.037 26.037C8.89739 26.037 5.88314 24.8107 3.63497 22.6191C3.45919 22.4476 3.2225 22.353 2.97694 22.3561C2.73141 22.3591 2.49713 22.4596 2.32567 22.6354C2.15421 22.8112 2.0596 23.0479 2.06266 23.2934C2.06571 23.5389 2.16618 23.7732 2.34196 23.9447C4.93542 26.4729 8.41508 27.8889 12.037 27.8889C15.6704 27.8889 19.16 26.4653 21.7556 23.923C21.9309 23.751 22.0308 23.5165 22.0331 23.2709C22.0355 23.0254 21.9403 22.789 21.7683 22.6136C21.5968 22.4382 21.3626 22.3381 21.1173 22.3351ZM2.77778 7.51853C1.25462 7.51853 0 8.77314 0 10.2963V17.7037C0 19.2269 1.25462 20.4815 2.77778 20.4815H14.8148C16.338 20.4815 17.5926 19.2269 17.5926 17.7037V16.0128L21.8424 19.6568C22.6684 20.3648 24.0741 19.7176 24.0741 18.6296V9.37037C24.0741 8.82642 23.7221 8.39314 23.2675 8.18403C22.8129 7.97492 22.2554 7.9892 21.8424 8.34317L17.5926 11.9872V10.2963C17.5926 8.77314 16.338 7.51853 14.8148 7.51853H2.77778ZM12.037 0.111115C8.41508 0.111115 4.93544 1.52706 2.34194 4.05534C2.16616 4.22681 2.0657 4.46109 2.06264 4.70664C2.05959 4.95217 2.15419 5.18886 2.32565 5.36467C2.49712 5.54045 2.73139 5.64089 2.97694 5.64395C3.22247 5.647 3.45917 5.55242 3.63497 5.38098C5.88319 3.18931 8.89739 1.96297 12.037 1.96297C15.1866 1.96297 18.209 3.197 20.459 5.40084C20.6345 5.57253 20.8711 5.66745 21.1166 5.66475C21.3622 5.66203 21.5966 5.56192 21.7683 5.38639C21.9402 5.21109 22.0355 4.97464 22.0331 4.72911C22.0307 4.48356 21.9309 4.24903 21.7556 4.07706C19.16 1.53466 15.6704 0.111115 12.037 0.111115Z" fill="black"/>
</g>
<defs>
<clipPath id="clip0_1_1217">
<rect width="25" height="27.7778" fill="white" transform="translate(0 0.111115)"/>
</clipPath>
</defs>
</svg>
