<svg width="25" height="26" viewBox="0 0 25 26" fill="none" xmlns="http://www.w3.org/2000/svg">
<g clip-path="url(#clip0_1_1219)">
<path d="M4.86668 0.5C4.68213 0.5 4.50513 0.573311 4.37463 0.703805C4.24415 0.834298 4.17083 1.01129 4.17083 1.19583V2.58333H1.04583C0.90869 2.58279 0.772788 2.60932 0.645925 2.66143C0.519063 2.71353 0.403737 2.79017 0.306567 2.88695C0.209399 2.98374 0.132298 3.09875 0.0796887 3.2254C0.0270797 3.35205 -1.0971e-06 3.48785 0 3.625V24.4583C-1.0971e-06 24.5955 0.0270797 24.7313 0.0796887 24.8579C0.132298 24.9846 0.209399 25.0996 0.306567 25.1964C0.403737 25.2931 0.519063 25.3698 0.645925 25.4219C0.772788 25.474 0.90869 25.5005 1.04583 25.5H21.8792C22.1554 25.5 22.4204 25.3903 22.6157 25.1949C22.8111 24.9995 22.9208 24.7346 22.9208 24.4583V3.625C22.9208 3.34873 22.8111 3.08378 22.6157 2.88843C22.4204 2.69308 22.1554 2.58333 21.8792 2.58333H18.7542V1.19583C18.7542 1.01129 18.6808 0.834298 18.5504 0.703805C18.4198 0.573311 18.2429 0.5 18.0583 0.5H17.3666C17.1821 0.5 17.0051 0.573311 16.8746 0.703805C16.7442 0.834298 16.6708 1.01129 16.6708 1.19583V2.58333H6.25417V1.19583C6.25417 1.01129 6.18085 0.834298 6.05035 0.703805C5.91988 0.573311 5.74288 0.5 5.55832 0.5H4.86668ZM2.0875 4.66668H20.8375V6.75H2.0875V4.66668ZM2.0875 8.83332H20.8375V23.4167H2.0875V8.83332ZM4.17083 10.9167V13H6.25417V10.9167H4.17083ZM8.3375 10.9167V13H10.4208V10.9167H8.3375ZM12.5041 10.9167V13H14.5875V10.9167H12.5041ZM16.6708 10.9167V13H18.7542V10.9167H16.6708ZM4.17083 15.0833V17.1666H6.25417V15.0833H4.17083ZM8.3375 15.0833V17.1666H10.4208V15.0833H8.3375ZM12.5041 15.0833V17.1666H14.5875V15.0833H12.5041ZM16.6708 15.0833V17.1666H18.7542V15.0833H16.6708ZM4.17083 19.25V21.3333H6.25417V19.25H4.17083ZM8.3375 19.25V21.3333H10.4208V19.25H8.3375ZM12.5041 19.25V21.3333H14.5875V19.25H12.5041Z" fill="black"/>
</g>
<defs>
<clipPath id="clip0_1_1219">
<rect width="25" height="25" fill="white" transform="translate(0 0.5)"/>
</clipPath>
</defs>
</svg>
